# Blender v3.1.2 OBJ File: 'industry.blend'
# www.blender.org
mtllib container2.mtl
o Cube.404_Cube.024
v 49.772678 8.676926 53.563839
v 49.772678 11.863441 53.563839
v 49.772678 8.676926 60.135410
v 49.772678 11.863441 60.135410
v 47.295280 8.676926 53.563839
v 47.295280 11.863441 53.563839
v 47.295280 8.676926 60.135410
v 47.295280 11.863441 60.135410
vt 0.519504 0.569803
vt 0.519504 0.809513
vt 0.025149 0.809513
vt 0.025149 0.569803
vt 0.809512 0.756168
vt 0.569803 0.756168
vt 0.569803 0.569803
vt 0.809512 0.569803
vt 0.025149 0.025149
vt 0.264859 0.025149
vt 0.264859 0.519504
vt 0.025149 0.519504
vt 0.788485 0.264859
vt 0.788485 0.025149
vt 0.974851 0.025149
vt 0.974851 0.264859
vt 0.315157 0.025149
vt 0.501523 0.025149
vt 0.501523 0.519504
vt 0.315157 0.519504
vt 0.551821 0.025149
vt 0.738187 0.025149
vt 0.738187 0.519504
vt 0.551821 0.519504
vn 1.0000 0.0000 0.0000
vn 0.0000 0.0000 1.0000
vn -1.0000 0.0000 0.0000
vn 0.0000 0.0000 -1.0000
vn 0.0000 -1.0000 0.0000
vn 0.0000 1.0000 0.0000
usemtl container5
s off
f 1/1/1 2/2/1 4/3/1 3/4/1
f 3/5/2 4/6/2 8/7/2 7/8/2
f 7/9/3 8/10/3 6/11/3 5/12/3
f 5/13/4 6/14/4 2/15/4 1/16/4
f 3/17/5 7/18/5 5/19/5 1/20/5
f 8/21/6 4/22/6 2/23/6 6/24/6
