# Blender v3.1.2 OBJ File: 'industry.blend'
# www.blender.org
mtllib palette.mtl
o Plane.000
v 66.810753 5.777365 1.980837
v 66.602936 5.777365 1.980837
v 66.810753 5.777365 3.686718
v 66.602936 5.777365 3.686718
v 66.810753 5.813384 3.686718
v 66.810753 5.813384 1.980837
v 66.602936 5.813384 1.980837
v 66.602936 5.813384 3.686718
v 66.540169 5.777365 1.980837
v 66.332352 5.777365 1.980837
v 66.540169 5.777365 3.686719
v 66.332352 5.777365 3.686719
v 66.540169 5.813384 3.686719
v 66.540169 5.813384 1.980837
v 66.332352 5.813384 1.980837
v 66.332352 5.813384 3.686719
v 66.269585 5.777365 1.980837
v 66.061768 5.777365 1.980837
v 66.269585 5.777365 3.686719
v 66.061768 5.777365 3.686719
v 66.269585 5.813384 3.686719
v 66.269585 5.813384 1.980837
v 66.061768 5.813384 1.980837
v 66.061768 5.813384 3.686719
v 65.998993 5.777365 1.980837
v 65.791183 5.777365 1.980837
v 65.998993 5.777365 3.686719
v 65.791183 5.777365 3.686719
v 65.998993 5.813384 3.686719
v 65.998993 5.813384 1.980837
v 65.791183 5.813384 1.980837
v 65.791183 5.813384 3.686719
v 65.791183 5.741347 1.980837
v 65.791183 5.741347 2.163428
v 66.810753 5.741347 1.980837
v 66.810753 5.741347 2.163427
v 66.810753 5.777365 1.980837
v 65.791183 5.777365 1.980837
v 65.791183 5.777365 2.163428
v 66.810753 5.777365 2.163427
v 65.791183 5.741347 2.729186
v 65.791183 5.741347 2.911776
v 66.810753 5.741347 2.729186
v 66.810753 5.741347 2.911776
v 66.810753 5.777365 2.729186
v 65.791183 5.777365 2.729186
v 65.791183 5.777365 2.911776
v 66.810753 5.777365 2.911776
v 65.791183 5.741347 3.504128
v 65.791183 5.741347 3.686719
v 66.810753 5.741347 3.504128
v 66.810753 5.741347 3.686718
v 66.810753 5.777365 3.504128
v 65.791183 5.777365 3.504128
v 65.791183 5.777365 3.686719
v 66.810753 5.777365 3.686718
v 65.791183 5.615153 1.980837
v 65.791183 5.615153 2.163428
v 65.911690 5.615153 1.980837
v 65.911690 5.615153 2.163427
v 65.911690 5.741347 1.980837
v 65.791183 5.741347 1.980837
v 65.791183 5.741347 2.163428
v 65.911690 5.741347 2.163427
v 66.690247 5.615153 1.980837
v 66.690247 5.615153 2.163427
v 66.810753 5.615153 1.980837
v 66.810753 5.615153 2.163427
v 66.810753 5.741347 1.980837
v 66.690247 5.741347 1.980837
v 66.690247 5.741347 2.163427
v 66.810753 5.741347 2.163427
v 66.229683 5.615153 1.980837
v 66.229683 5.615153 2.163427
v 66.350197 5.615153 1.980837
v 66.350197 5.615153 2.163427
v 66.350197 5.741347 1.980837
v 66.229683 5.741347 1.980837
v 66.229683 5.741347 2.163427
v 66.350197 5.741347 2.163427
v 66.229683 5.615153 3.504128
v 66.229683 5.615153 3.686719
v 66.350197 5.615153 3.504128
v 66.350197 5.615153 3.686719
v 66.350197 5.741347 3.504128
v 66.229683 5.741347 3.504128
v 66.229683 5.741347 3.686719
v 66.350197 5.741347 3.686719
v 65.791183 5.615153 3.504128
v 65.791183 5.615153 3.686719
v 65.911690 5.615153 3.504128
v 65.911690 5.615153 3.686719
v 65.911690 5.741347 3.504128
v 65.791183 5.741347 3.504128
v 65.791183 5.741347 3.686719
v 65.911690 5.741347 3.686719
v 66.690247 5.615153 3.504128
v 66.690247 5.615153 3.686719
v 66.810753 5.615153 3.504128
v 66.810753 5.615153 3.686718
v 66.810753 5.741347 3.504128
v 66.690247 5.741347 3.504128
v 66.690247 5.741347 3.686719
v 66.810753 5.741347 3.686718
v 65.791183 5.579135 3.504128
v 65.791183 5.579135 3.686719
v 66.810753 5.579135 3.504128
v 66.810753 5.579135 3.686718
v 66.810753 5.615153 3.504128
v 65.791183 5.615153 3.504128
v 65.791183 5.615153 3.686719
v 66.810753 5.615153 3.686718
v 66.810753 5.579135 2.911776
v 66.810753 5.579135 2.729186
v 65.791183 5.579135 2.911776
v 65.791183 5.579135 2.729186
v 65.791183 5.579134 1.980837
v 65.791183 5.579134 2.163428
v 66.810753 5.579134 1.980837
v 66.810753 5.579134 2.163427
v 66.810753 5.615153 1.980837
v 65.791183 5.615153 1.980837
v 65.791183 5.615153 2.163428
v 66.810753 5.615153 2.163427
v 65.911690 5.579135 1.980837
v 65.791183 5.579135 1.980837
v 65.791183 5.579135 2.163428
v 65.911690 5.579135 2.163428
v 65.791183 5.615153 2.729186
v 65.791183 5.615153 2.911776
v 65.911690 5.615153 2.729186
v 65.911690 5.615153 2.911776
v 65.911690 5.741347 2.729186
v 65.791183 5.741347 2.729186
v 65.791183 5.741347 2.911776
v 65.911690 5.741347 2.911776
v 66.229683 5.615153 2.729186
v 66.229683 5.615153 2.911776
v 66.350197 5.615153 2.729186
v 66.350197 5.615153 2.911776
v 66.350197 5.741347 2.729186
v 66.229683 5.741347 2.729186
v 66.229683 5.741347 2.911776
v 66.350197 5.741347 2.911776
v 66.690247 5.615153 2.729186
v 66.690247 5.615153 2.911776
v 66.810753 5.615153 2.729186
v 66.810753 5.615153 2.911776
v 66.810753 5.741347 2.729186
v 66.690247 5.741347 2.729186
v 66.690247 5.741347 2.911776
v 66.810753 5.741347 2.911776
v 65.791183 5.615153 1.980837
v 65.791183 5.615153 2.163428
v 66.810753 5.615153 1.980837
v 66.810753 5.615153 2.163427
v 65.791183 5.615153 3.504128
v 65.791183 5.615153 3.686719
v 66.810753 5.615153 3.504128
v 66.810753 5.615153 3.686718
v 66.810753 5.615153 2.729186
v 65.791183 5.615153 2.729186
v 65.791183 5.615153 2.911776
v 66.810753 5.615153 2.911776
v 65.791183 5.615153 2.729186
v 65.791183 5.615153 2.911776
v 66.810753 5.615153 2.729186
v 66.810753 5.615153 2.911776
vt 0.000000 0.000000
vt 0.000000 1.000000
vt 1.000000 1.000000
vt 1.000000 0.000000
vt 0.000000 0.000000
vt 1.000000 0.000000
vt 1.000000 1.000000
vt 0.000000 1.000000
vt 0.000000 0.000000
vt 0.000000 1.000000
vt 1.000000 1.000000
vt 1.000000 0.000000
vt 0.000000 0.000000
vt 1.000000 0.000000
vt 1.000000 1.000000
vt 0.000000 1.000000
vt 0.000000 0.000000
vt 0.000000 1.000000
vt 1.000000 1.000000
vt 1.000000 0.000000
vt 0.000000 0.000000
vt 1.000000 0.000000
vt 1.000000 1.000000
vt 0.000000 1.000000
vt 0.000000 0.000000
vt 0.000000 1.000000
vt 1.000000 1.000000
vt 1.000000 0.000000
vt 0.000000 0.000000
vt 1.000000 0.000000
vt 1.000000 1.000000
vt 0.000000 1.000000
vt 0.000000 0.000000
vt 0.000000 1.000000
vt 1.000000 1.000000
vt 1.000000 0.000000
vt 0.000000 0.000000
vt 1.000000 0.000000
vt 1.000000 1.000000
vt 0.000000 1.000000
vt 0.000000 0.000000
vt 0.000000 1.000000
vt 1.000000 1.000000
vt 1.000000 0.000000
vt 1.000000 0.000000
vt 0.000000 0.000000
vt 1.000000 1.000000
vt 0.000000 1.000000
vt 0.000000 0.000000
vt 0.000000 1.000000
vt 1.000000 1.000000
vt 1.000000 0.000000
vt 1.000000 0.000000
vt 0.000000 0.000000
vt 1.000000 1.000000
vt 0.000000 1.000000
vt 0.000000 0.000000
vt 0.000000 1.000000
vt 1.000000 1.000000
vt 1.000000 0.000000
vt 0.000000 0.000000
vt 1.000000 0.000000
vt 1.000000 1.000000
vt 0.000000 1.000000
vt 0.000000 0.000000
vt 0.000000 1.000000
vt 1.000000 1.000000
vt 1.000000 0.000000
vt 0.000000 0.000000
vt 1.000000 0.000000
vt 1.000000 1.000000
vt 0.000000 1.000000
vt 0.000000 0.000000
vt 0.000000 1.000000
vt 1.000000 1.000000
vt 1.000000 0.000000
vt 0.000000 0.000000
vt 1.000000 0.000000
vt 1.000000 1.000000
vt 0.000000 1.000000
vt 0.000000 0.000000
vt 0.000000 1.000000
vt 1.000000 1.000000
vt 1.000000 0.000000
vt 0.000000 0.000000
vt 1.000000 0.000000
vt 1.000000 1.000000
vt 0.000000 1.000000
vt 0.000000 0.000000
vt 0.000000 1.000000
vt 1.000000 1.000000
vt 1.000000 0.000000
vt 0.000000 0.000000
vt 1.000000 0.000000
vt 1.000000 1.000000
vt 0.000000 1.000000
vt 0.000000 0.000000
vt 0.000000 1.000000
vt 1.000000 1.000000
vt 1.000000 0.000000
vt 0.000000 0.000000
vt 1.000000 0.000000
vt 1.000000 1.000000
vt 0.000000 1.000000
vt 0.000000 0.000000
vt 0.000000 1.000000
vt 1.000000 1.000000
vt 1.000000 0.000000
vt 1.000000 0.000000
vt 0.000000 0.000000
vt 1.000000 1.000000
vt 0.000000 1.000000
vt 0.000000 0.000000
vt 0.000000 1.000000
vt 1.000000 1.000000
vt 1.000000 0.000000
vt 0.000000 0.000000
vt 0.000000 1.000000
vt 1.000000 1.000000
vt 1.000000 0.000000
vt 1.000000 0.000000
vt 0.000000 0.000000
vt 1.000000 1.000000
vt 0.000000 1.000000
vt 0.000000 0.000000
vt 1.000000 0.000000
vt 1.000000 1.000000
vt 0.000000 1.000000
vt 0.000000 0.000000
vt 0.000000 1.000000
vt 1.000000 1.000000
vt 1.000000 0.000000
vt 0.000000 0.000000
vt 1.000000 0.000000
vt 1.000000 1.000000
vt 0.000000 1.000000
vt 0.000000 0.000000
vt 0.000000 1.000000
vt 1.000000 1.000000
vt 1.000000 0.000000
vt 0.000000 0.000000
vt 1.000000 0.000000
vt 1.000000 1.000000
vt 0.000000 1.000000
vt 0.000000 0.000000
vt 0.000000 1.000000
vt 1.000000 1.000000
vt 1.000000 0.000000
vt 0.000000 0.000000
vt 1.000000 0.000000
vt 1.000000 1.000000
vt 0.000000 1.000000
vt 0.000000 0.000000
vt 0.000000 1.000000
vt 1.000000 1.000000
vt 1.000000 0.000000
vt 0.000000 0.000000
vt 0.000000 1.000000
vt 1.000000 1.000000
vt 1.000000 0.000000
vt 1.000000 0.000000
vt 0.000000 0.000000
vt 1.000000 1.000000
vt 0.000000 1.000000
vt 0.000000 0.000000
vt 0.000000 1.000000
vt 1.000000 1.000000
vt 1.000000 0.000000
vn 0.0000 -1.0000 0.0000
vn 0.0000 1.0000 0.0000
vn 0.0000 0.0000 -1.0000
vn -1.0000 0.0000 0.0000
vn 1.0000 0.0000 0.0000
vn 0.0000 0.0000 1.0000
usemtl tahta
s off
f 1/1/1 3/2/1 4/3/1 2/4/1
f 6/5/2 7/6/2 8/7/2 5/8/2
f 1/1/3 2/4/3 7/6/3 6/5/3
f 2/4/4 4/3/4 8/7/4 7/6/4
f 3/2/5 1/1/5 6/5/5 5/8/5
f 4/3/6 3/2/6 5/8/6 8/7/6
f 9/9/1 11/10/1 12/11/1 10/12/1
f 14/13/2 15/14/2 16/15/2 13/16/2
f 9/9/3 10/12/3 15/14/3 14/13/3
f 10/12/4 12/11/4 16/15/4 15/14/4
f 11/10/5 9/9/5 14/13/5 13/16/5
f 12/11/6 11/10/6 13/16/6 16/15/6
f 17/17/1 19/18/1 20/19/1 18/20/1
f 22/21/2 23/22/2 24/23/2 21/24/2
f 17/17/3 18/20/3 23/22/3 22/21/3
f 18/20/4 20/19/4 24/23/4 23/22/4
f 19/18/5 17/17/5 22/21/5 21/24/5
f 20/19/6 19/18/6 21/24/6 24/23/6
f 25/25/1 27/26/1 28/27/1 26/28/1
f 30/29/2 31/30/2 32/31/2 29/32/2
f 25/25/3 26/28/3 31/30/3 30/29/3
f 26/28/4 28/27/4 32/31/4 31/30/4
f 27/26/5 25/25/5 30/29/5 29/32/5
f 28/27/6 27/26/6 29/32/6 32/31/6
f 33/33/1 35/34/1 36/35/1 34/36/1
f 38/37/2 39/38/2 40/39/2 37/40/2
f 33/33/4 34/36/4 39/38/4 38/37/4
f 34/36/6 36/35/6 40/39/6 39/38/6
f 35/34/3 33/33/3 38/37/3 37/40/3
f 36/35/5 35/34/5 37/40/5 40/39/5
f 41/41/1 43/42/1 44/43/1 42/44/1
f 41/41/4 42/44/4 47/45/4 46/46/4
f 42/44/6 44/43/6 48/47/6 47/45/6
f 43/42/3 41/41/3 46/46/3 45/48/3
f 44/43/5 43/42/5 45/48/5 48/47/5
f 49/49/1 51/50/1 52/51/1 50/52/1
f 49/49/4 50/52/4 55/53/4 54/54/4
f 50/52/6 52/51/6 56/55/6 55/53/6
f 51/50/3 49/49/3 54/54/3 53/56/3
f 52/51/5 51/50/5 53/56/5 56/55/5
f 57/57/1 59/58/1 60/59/1 58/60/1
f 62/61/2 63/62/2 64/63/2 61/64/2
f 57/57/4 58/60/4 63/62/4 62/61/4
f 58/60/6 60/59/6 64/63/6 63/62/6
f 59/58/3 57/57/3 62/61/3 61/64/3
f 60/59/5 59/58/5 61/64/5 64/63/5
f 65/65/1 67/66/1 68/67/1 66/68/1
f 70/69/2 71/70/2 72/71/2 69/72/2
f 65/65/4 66/68/4 71/70/4 70/69/4
f 66/68/6 68/67/6 72/71/6 71/70/6
f 67/66/3 65/65/3 70/69/3 69/72/3
f 68/67/5 67/66/5 69/72/5 72/71/5
f 73/73/1 75/74/1 76/75/1 74/76/1
f 78/77/2 79/78/2 80/79/2 77/80/2
f 73/73/4 74/76/4 79/78/4 78/77/4
f 74/76/6 76/75/6 80/79/6 79/78/6
f 75/74/3 73/73/3 78/77/3 77/80/3
f 76/75/5 75/74/5 77/80/5 80/79/5
f 81/81/1 83/82/1 84/83/1 82/84/1
f 86/85/2 87/86/2 88/87/2 85/88/2
f 81/81/4 82/84/4 87/86/4 86/85/4
f 82/84/6 84/83/6 88/87/6 87/86/6
f 83/82/3 81/81/3 86/85/3 85/88/3
f 84/83/5 83/82/5 85/88/5 88/87/5
f 89/89/1 91/90/1 92/91/1 90/92/1
f 94/93/2 95/94/2 96/95/2 93/96/2
f 89/89/4 90/92/4 95/94/4 94/93/4
f 90/92/6 92/91/6 96/95/6 95/94/6
f 91/90/3 89/89/3 94/93/3 93/96/3
f 92/91/5 91/90/5 93/96/5 96/95/5
f 97/97/1 99/98/1 100/99/1 98/100/1
f 102/101/2 103/102/2 104/103/2 101/104/2
f 97/97/4 98/100/4 103/102/4 102/101/4
f 98/100/6 100/99/6 104/103/6 103/102/6
f 99/98/3 97/97/3 102/101/3 101/104/3
f 100/99/5 99/98/5 101/104/5 104/103/5
f 105/105/1 107/106/1 108/107/1 106/108/1
f 105/105/4 106/108/4 111/109/4 110/110/4
f 106/108/6 108/107/6 112/111/6 111/109/6
f 107/106/3 105/105/3 110/110/3 109/112/3
f 108/107/5 107/106/5 109/112/5 112/111/5
f 116/113/1 114/114/1 113/115/1 115/116/1
f 117/117/1 119/118/1 120/119/1 118/120/1
f 117/117/4 118/120/4 123/121/4 122/122/4
f 118/120/6 120/119/6 124/123/6 123/121/6
f 119/118/3 117/117/3 122/122/3 121/124/3
f 120/119/5 119/118/5 121/124/5 124/123/5
f 126/125/2 127/126/2 128/127/2 125/128/2
f 129/129/1 131/130/1 132/131/1 130/132/1
f 134/133/2 135/134/2 136/135/2 133/136/2
f 129/129/4 130/132/4 135/134/4 134/133/4
f 130/132/6 132/131/6 136/135/6 135/134/6
f 131/130/3 129/129/3 134/133/3 133/136/3
f 132/131/5 131/130/5 133/136/5 136/135/5
f 137/137/1 139/138/1 140/139/1 138/140/1
f 142/141/2 143/142/2 144/143/2 141/144/2
f 137/137/4 138/140/4 143/142/4 142/141/4
f 138/140/6 140/139/6 144/143/6 143/142/6
f 139/138/3 137/137/3 142/141/3 141/144/3
f 140/139/5 139/138/5 141/144/5 144/143/5
f 145/145/1 147/146/1 148/147/1 146/148/1
f 150/149/2 151/150/2 152/151/2 149/152/2
f 145/145/4 146/148/4 151/150/4 150/149/4
f 146/148/6 148/147/6 152/151/6 151/150/6
f 147/146/3 145/145/3 150/149/3 149/152/3
f 148/147/5 147/146/5 149/152/5 152/151/5
f 153/153/1 155/154/1 156/155/1 154/156/1
f 157/157/1 159/158/1 160/159/1 158/160/1
f 116/113/4 115/116/4 163/161/4 162/162/4
f 115/116/6 113/115/6 164/163/6 163/161/6
f 114/114/3 116/113/3 162/162/3 161/164/3
f 113/115/5 114/114/5 161/164/5 164/163/5
f 165/165/1 167/166/1 168/167/1 166/168/1
