# Blender v3.1.2 OBJ File: 'industry.blend'
# www.blender.org
mtllib port.mtl
o ground_Cube.479
v -27.267879 -23.577400 79.973885
v -27.267879 5.587785 79.973885
v -27.267879 -23.577400 -21.436853
v -27.267879 5.587785 -21.436853
v 74.142853 -23.577400 79.973885
v 74.142853 5.587785 79.973885
v 74.142853 -23.577400 -21.436853
v 74.142853 5.587785 -21.436853
vt 0.000077 0.000077
vt 0.071965 0.000077
vt 0.071965 0.250038
vt 0.000077 0.250038
vt 0.071964 0.500000
vt 0.000077 0.500000
vt 0.071965 0.749961
vt 0.000077 0.749961
vt 0.071965 0.999923
vt 0.000077 0.999923
vt 0.072118 0.250039
vt 0.072118 0.000077
vt 0.322080 0.000077
vt 0.322080 0.250039
vt 0.072118 0.500154
vt 0.072118 0.250192
vt 0.322080 0.250192
vt 0.322080 0.500154
vn -1.0000 0.0000 0.0000
vn 0.0000 0.0000 -1.0000
vn 1.0000 0.0000 0.0000
vn 0.0000 0.0000 1.0000
vn 0.0000 -1.0000 0.0000
vn 0.0000 1.0000 0.0000
usemtl Material.051
s off
f 1/1/1 2/2/1 4/3/1 3/4/1
f 3/4/2 4/3/2 8/5/2 7/6/2
f 7/6/3 8/5/3 6/7/3 5/8/3
f 5/8/4 6/7/4 2/9/4 1/10/4
f 3/11/5 7/12/5 5/13/5 1/14/5
f 8/15/6 4/16/6 2/17/6 6/18/6
